HIERARCHY
ROOT Hips
{
	OFFSET 0.000000 100.481300 0.000000
	CHANNELS 6 Xposition Yposition Zposition Xrotation Yrotation Zrotation
	JOINT Spine
	{
		OFFSET -0.279200 12.230698 -2.892100
		CHANNELS 3 Xrotation Yrotation Zrotation
		JOINT Spine1
		{
			OFFSET -0.325700 14.269203 -3.374200
			CHANNELS 3 Xrotation Yrotation Zrotation
			JOINT Spine2
			{
				OFFSET -0.372300 16.307602 -0.352600
				CHANNELS 3 Xrotation Yrotation Zrotation
				JOINT Neck
				{
					OFFSET -0.418800 17.814194 8.416900
					CHANNELS 3 Xrotation Yrotation Zrotation
					JOINT Head
					{
						OFFSET 0.000000 7.031097 3.806800
						CHANNELS 3 Xrotation Yrotation Zrotation
						JOINT HeadTop_End
						{
							OFFSET 0.000000 24.646606 12.978600
							CHANNELS 3 Xrotation Yrotation Zrotation
							End Site
							{
								OFFSET 0.000000 27.854965 0.000000
							}
						}
					}
				}
				JOINT LeftShoulder
				{
					OFFSET 16.952999 14.495407 -7.737500
					CHANNELS 3 Xrotation Yrotation Zrotation
					JOINT LeftArm
					{
						OFFSET 9.308998 -2.777710 0.208600
						CHANNELS 3 Xrotation Yrotation Zrotation
						JOINT LeftForeArm
						{
							OFFSET 29.972298 0.000000 0.000000
							CHANNELS 3 Xrotation Yrotation Zrotation
							JOINT LeftHand
							{
								OFFSET 26.026505 0.000000 0.000000
								CHANNELS 3 Xrotation Yrotation Zrotation
								JOINT LeftHandThumb1
								{
									OFFSET 12.240501 -7.147949 9.207150
									CHANNELS 3 Xrotation Yrotation Zrotation
									JOINT LeftHandThumb2
									{
										OFFSET 4.138618 -2.389435 2.389433
										CHANNELS 3 Xrotation Yrotation Zrotation
										JOINT LeftHandThumb3
										{
											OFFSET 2.726913 -1.574387 1.574386
											CHANNELS 3 Xrotation Yrotation Zrotation
											JOINT LeftHandThumb4
											{
												OFFSET 3.941010 -2.275345 2.275342
												CHANNELS 3 Xrotation Yrotation Zrotation
												End Site
												{
													OFFSET -0.005798 5.087799 0.009903
												}
											}
										}
									}
								}
								JOINT LeftHandIndex1
								{
									OFFSET 24.424698 -1.985611 5.953459
									CHANNELS 3 Xrotation Yrotation Zrotation
									JOINT LeftHandIndex2
									{
										OFFSET 6.426697 0.000000 0.000000
										CHANNELS 3 Xrotation Yrotation Zrotation
										JOINT LeftHandIndex3
										{
											OFFSET 5.337898 0.000000 0.000000
											CHANNELS 3 Xrotation Yrotation Zrotation
											JOINT LeftHandIndex4
											{
												OFFSET 4.409401 0.000000 0.000000
												CHANNELS 3 Xrotation Yrotation Zrotation
												End Site
												{
													OFFSET 0.000000 4.409363 0.014373
												}
											}
										}
									}
								}
								JOINT LeftHandMiddle1
								{
									OFFSET 23.810104 0.000000 0.000000
									CHANNELS 3 Xrotation Yrotation Zrotation
									JOINT LeftHandMiddle2
									{
										OFFSET 7.176498 0.000000 0.000000
										CHANNELS 3 Xrotation Yrotation Zrotation
										JOINT LeftHandMiddle3
										{
											OFFSET 6.774902 0.000000 0.000000
											CHANNELS 3 Xrotation Yrotation Zrotation
											JOINT LeftHandMiddle4
											{
												OFFSET 5.403328 0.000000 0.000000
												CHANNELS 3 Xrotation Yrotation Zrotation
												End Site
												{
													OFFSET -0.027702 5.403244 0.017414
												}
											}
										}
									}
								}
								JOINT LeftHandRing1
								{
									OFFSET 22.908401 -0.839279 -6.020567
									CHANNELS 3 Xrotation Yrotation Zrotation
									JOINT LeftHandRing2
									{
										OFFSET 6.337502 0.000000 0.000000
										CHANNELS 3 Xrotation Yrotation Zrotation
										JOINT LeftHandRing3
										{
											OFFSET 5.779297 0.000000 0.000000
											CHANNELS 3 Xrotation Yrotation Zrotation
											JOINT LeftHandRing4
											{
												OFFSET 4.965698 0.000000 0.000000
												CHANNELS 3 Xrotation Yrotation Zrotation
												End Site
												{
													OFFSET 0.000000 4.965668 0.016186
												}
											}
										}
									}
								}
								JOINT LeftHandPinky1
								{
									OFFSET 20.037003 -1.530319 -10.950146
									CHANNELS 3 Xrotation Yrotation Zrotation
									JOINT LeftHandPinky2
									{
										OFFSET 5.254700 0.000000 0.000000
										CHANNELS 3 Xrotation Yrotation Zrotation
										JOINT LeftHandPinky3
										{
											OFFSET 4.810204 0.000000 0.000000
											CHANNELS 3 Xrotation Yrotation Zrotation
											JOINT LeftHandPinky4
											{
												OFFSET 3.647202 0.000000 0.000000
												CHANNELS 3 Xrotation Yrotation Zrotation
												End Site
												{
													OFFSET 0.000000 3.647186 0.011889
												}
											}
										}
									}
								}
							}
						}
					}
				}
				JOINT RightShoulder
				{
					OFFSET -15.141001 14.495407 -7.737500
					CHANNELS 3 Xrotation Yrotation Zrotation
					JOINT RightArm
					{
						OFFSET -9.308998 -2.777710 0.208500
						CHANNELS 3 Xrotation Yrotation Zrotation
						JOINT RightForeArm
						{
							OFFSET -29.972300 0.000000 0.000000
							CHANNELS 3 Xrotation Yrotation Zrotation
							JOINT RightHand
							{
								OFFSET -26.026505 0.000000 0.000000
								CHANNELS 3 Xrotation Yrotation Zrotation
								JOINT RightHandThumb1
								{
									OFFSET -12.240601 -7.148026 9.207092
									CHANNELS 3 Xrotation Yrotation Zrotation
									JOINT RightHandThumb2
									{
										OFFSET -4.138618 -2.389435 2.389433
										CHANNELS 3 Xrotation Yrotation Zrotation
										JOINT RightHandThumb3
										{
											OFFSET -2.726974 -1.574417 1.574421
											CHANNELS 3 Xrotation Yrotation Zrotation
											JOINT RightHandThumb4
											{
												OFFSET -3.941010 -2.275345 2.275343
												CHANNELS 3 Xrotation Yrotation Zrotation
												End Site
												{
													OFFSET 0.005814 5.087799 0.009927
												}
											}
										}
									}
								}
								JOINT RightHandIndex1
								{
									OFFSET -24.424698 -1.985657 5.953444
									CHANNELS 3 Xrotation Yrotation Zrotation
									JOINT RightHandIndex2
									{
										OFFSET -6.426697 0.000000 0.000000
										CHANNELS 3 Xrotation Yrotation Zrotation
										JOINT RightHandIndex3
										{
											OFFSET -5.337898 0.000000 0.000000
											CHANNELS 3 Xrotation Yrotation Zrotation
											JOINT RightHandIndex4
											{
												OFFSET -4.409401 0.000000 0.000000
												CHANNELS 3 Xrotation Yrotation Zrotation
												End Site
												{
													OFFSET 0.000000 4.409363 0.014408
												}
											}
										}
									}
								}
								JOINT RightHandMiddle1
								{
									OFFSET -23.810097 0.000000 0.000000
									CHANNELS 3 Xrotation Yrotation Zrotation
									JOINT RightHandMiddle2
									{
										OFFSET -7.176498 0.000000 0.000000
										CHANNELS 3 Xrotation Yrotation Zrotation
										JOINT RightHandMiddle3
										{
											OFFSET -6.774902 0.000000 0.000000
											CHANNELS 3 Xrotation Yrotation Zrotation
											JOINT RightHandMiddle4
											{
												OFFSET -5.403328 0.000000 0.000000
												CHANNELS 3 Xrotation Yrotation Zrotation
												End Site
												{
													OFFSET 0.027702 5.403244 0.017457
												}
											}
										}
									}
								}
								JOINT RightHandRing1
								{
									OFFSET -22.908302 -0.839325 -6.020576
									CHANNELS 3 Xrotation Yrotation Zrotation
									JOINT RightHandRing2
									{
										OFFSET -6.337502 0.000000 0.000000
										CHANNELS 3 Xrotation Yrotation Zrotation
										JOINT RightHandRing3
										{
											OFFSET -5.779297 0.000000 0.000000
											CHANNELS 3 Xrotation Yrotation Zrotation
											JOINT RightHandRing4
											{
												OFFSET -4.965698 0.000000 0.000000
												CHANNELS 3 Xrotation Yrotation Zrotation
												End Site
												{
													OFFSET 0.000000 4.965668 0.016226
												}
											}
										}
									}
								}
								JOINT RightHandPinky1
								{
									OFFSET -20.037003 -1.530334 -10.950259
									CHANNELS 3 Xrotation Yrotation Zrotation
									JOINT RightHandPinky2
									{
										OFFSET -5.254700 0.000000 0.000000
										CHANNELS 3 Xrotation Yrotation Zrotation
										JOINT RightHandPinky3
										{
											OFFSET -4.810204 0.000000 0.000000
											CHANNELS 3 Xrotation Yrotation Zrotation
											JOINT RightHandPinky4
											{
												OFFSET -3.647202 0.000000 0.000000
												CHANNELS 3 Xrotation Yrotation Zrotation
												End Site
												{
													OFFSET 0.000000 3.647186 0.011917
												}
											}
										}
									}
								}
							}
						}
					}
				}
			}
		}
	}
	JOINT LeftUpLeg
	{
		OFFSET 15.427100 -6.655098 0.678600
		CHANNELS 3 Xrotation Yrotation Zrotation
		JOINT LeftLeg
		{
			OFFSET 4.081073 -39.591068 13.024000
			CHANNELS 3 Xrotation Yrotation Zrotation
			JOINT LeftFoot
			{
				OFFSET -4.081074 -37.707932 -15.979700
				CHANNELS 3 Xrotation Yrotation Zrotation
				JOINT LeftToeBase
				{
					OFFSET 5.346399 -15.068900 20.645000
					CHANNELS 3 Xrotation Yrotation Zrotation
					JOINT LeftToe_End
					{
						OFFSET 2.754700 0.931300 11.300900
						CHANNELS 3 Xrotation Yrotation Zrotation
						End Site
						{
							OFFSET 0.000000 11.669021 0.000000
						}
					}
				}
			}
		}
	}
	JOINT RightUpLeg
	{
		OFFSET -15.569500 -6.655098 0.678600
		CHANNELS 3 Xrotation Yrotation Zrotation
		JOINT RightLeg
		{
			OFFSET -4.081825 -39.591045 13.023800
			CHANNELS 3 Xrotation Yrotation Zrotation
			JOINT RightFoot
			{
				OFFSET 4.081824 -37.707954 -15.979600
				CHANNELS 3 Xrotation Yrotation Zrotation
				JOINT RightToeBase
				{
					OFFSET -5.346400 -15.068900 20.645000
					CHANNELS 3 Xrotation Yrotation Zrotation
					JOINT RightToe_End
					{
						OFFSET -2.754700 0.931300 11.300900
						CHANNELS 3 Xrotation Yrotation Zrotation
						End Site
						{
							OFFSET 0.000000 11.669021 0.000000
						}
					}
				}
			}
		}
	}
}
MOTION
Frames: 4
Frame Time: 0.033333
-2.526863 27.441437 1.674435 -43.449699 -37.982136 -26.486365 59.050414 9.262957 -0.697460 10.734613 0.744709 -4.521334 17.520070 -0.085160 -4.562561 -10.626386 7.119773 2.460949 -15.542307 20.386163 10.545792 0.000000 -0.000000 -0.000002 -37.559050 -4.830597 1.310664 -73.285935 -19.463853 -69.165439 -0.000034 -49.482562 -0.000024 -122.217506 3.140015 22.355277 4.709227 9.560376 3.111987 19.473187 -1.474912 7.636926 -4.536179 -9.613114 1.492981 0.000001 -0.000003 0.000000 -0.212816 3.933717 -36.747111 2.942144 5.078894 -60.144610 0.513676 2.400826 -24.150504 -0.000002 0.000000 -0.000001 0.405920 5.507049 -52.453162 3.387147 5.308628 -65.057443 0.282024 1.797447 -17.832381 0.000003 -0.000002 -0.000001 -0.074380 5.736788 -61.061413 4.055035 5.569507 -72.094887 0.582663 2.548980 -25.747998 0.000001 -0.000000 0.000001 -6.565578 4.545135 -72.425215 3.299627 5.267215 -64.107821 0.175349 1.424017 -14.038882 -0.000002 0.000000 -0.000005 -42.139829 -9.769746 -7.575438 -51.815663 45.272133 94.913866 0.000003 103.657423 -0.000005 -37.420049 -24.461435 -24.583553 8.377134 -4.904138 11.022006 21.620209 -18.183890 -18.379221 -0.702886 -49.821213 -32.535131 -0.000000 -0.000001 0.000002 -0.920038 1.683584 12.434991 0.748112 -2.533466 32.898293 0.615635 -2.316067 29.767829 -0.000001 0.000000 -0.000001 3.413066 -7.186253 51.650266 6.296803 -4.359580 110.634680 0.248703 -1.503052 18.790265 0.000000 0.000000 0.000000 -3.349037 -2.600428 57.010571 5.440845 -4.590900 99.698168 1.689411 -3.590700 50.382245 -0.000000 -0.000001 0.000002 -3.996434 -3.303925 64.593871 4.058838 -4.618673 82.610510 2.315551 -4.026783 59.787207 -0.000000 -0.000001 0.000002 -84.992859 -23.299865 21.503182 107.609842 -10.564353 1.250654 15.073413 -3.723103 -17.956200 0.928067 0.000008 -0.000005 0.000000 -0.000001 -0.000000 34.655171 8.794157 -103.248623 23.921110 58.378132 113.518755 -28.693713 17.362657 -12.654806 -33.674182 -0.000020 0.000002 0.000001 -0.000002 -0.000001 
-2.630470 27.500793 1.429428 -42.859218 -37.202463 -25.346856 59.002985 9.258530 -0.822597 10.701944 0.599325 -4.565193 17.484666 -0.235225 -4.569833 -10.374129 7.291676 2.730492 -15.496917 21.999247 9.700769 -0.000000 -0.000001 -0.000003 -37.544300 -4.677334 1.328139 -71.747907 -21.988039 -69.305055 -0.000015 -47.427871 -0.000005 -125.118766 2.530986 20.632454 4.709227 9.560377 3.111987 19.473189 -1.474905 7.636925 -4.536180 -9.613109 1.492977 -0.000002 0.000001 -0.000001 -0.212815 3.933713 -36.747114 2.942143 5.078898 -60.144610 0.513680 2.400826 -24.150502 -0.000000 0.000001 0.000000 0.405920 5.507046 -52.453158 3.387148 5.308624 -65.057449 0.282019 1.797448 -17.832383 0.000002 -0.000001 -0.000001 -0.074379 5.736789 -61.061420 4.055030 5.569510 -72.094880 0.582663 2.548978 -25.748003 -0.000000 0.000001 -0.000001 -6.565579 4.545132 -72.425215 3.299627 5.267215 -64.107814 0.175350 1.424013 -14.038883 0.000001 0.000002 -0.000003 -42.395906 -10.007450 -8.993610 -50.203362 45.005452 94.513125 0.000020 103.830132 -0.000020 -38.255056 -24.867146 -25.166505 8.377135 -4.904137 11.022009 21.620206 -18.183888 -18.379219 -0.702889 -49.821206 -32.535128 -0.000000 0.000002 0.000003 -0.920038 1.683585 12.434994 0.748111 -2.533465 32.898293 0.615636 -2.316066 29.767832 -0.000000 0.000000 -0.000000 3.413066 -7.186253 51.650263 6.296804 -4.359580 110.634673 0.248704 -1.503052 18.790267 -0.000000 -0.000000 -0.000000 -3.349037 -2.600428 57.010568 5.440845 -4.590900 99.698168 1.689410 -3.590700 50.382242 0.000000 0.000000 0.000002 -3.996434 -3.303925 64.593871 4.058837 -4.618673 82.610510 2.315550 -4.026784 59.787200 0.000000 -0.000000 0.000001 -86.061852 -21.680873 21.626828 106.941488 -9.823490 1.424529 16.221054 -5.172571 -16.441240 0.929587 0.000003 0.000001 -0.000000 0.000001 -0.000000 35.932679 6.498415 -102.121437 22.485946 57.755014 114.976112 -29.736933 18.090895 -14.211833 -33.759200 0.000026 0.000024 0.000001 -0.000001 -0.000000 
-2.799217 27.578033 1.008968 -41.841985 -35.923684 -23.620403 58.941698 9.324146 -0.910314 10.727773 0.363627 -4.576675 17.508618 -0.465442 -4.522944 -10.202656 7.610181 2.953761 -15.572777 24.086172 8.653035 -0.000000 -0.000000 -0.000001 -37.496803 -4.409932 1.579066 -69.740528 -24.734005 -69.614121 0.000008 -45.357886 0.000005 -128.669822 1.514905 18.397425 4.709227 9.560378 3.111988 19.473189 -1.474910 7.636927 -4.536183 -9.613110 1.492976 0.000000 0.000002 -0.000000 -0.212816 3.933719 -36.747111 2.942144 5.078894 -60.144610 0.513669 2.400825 -24.150500 -0.000001 -0.000001 0.000001 0.405920 5.507047 -52.453162 3.387145 5.308626 -65.057449 0.282019 1.797447 -17.832381 0.000003 -0.000001 0.000001 -0.074381 5.736786 -61.061420 4.055030 5.569509 -72.094887 0.582666 2.548975 -25.748003 -0.000000 -0.000001 0.000001 -6.565580 4.545135 -72.425215 3.299627 5.267217 -64.107814 0.175344 1.424015 -14.038877 -0.000001 -0.000001 -0.000002 -42.733710 -10.454299 -10.901948 -48.300697 44.772146 93.932457 -0.000173 103.867732 0.000176 -39.302582 -25.078151 -25.172304 8.377135 -4.904137 11.022009 21.620211 -18.183891 -18.379219 -0.702894 -49.821206 -32.535125 -0.000001 0.000000 0.000005 -0.920037 1.683585 12.434994 0.748111 -2.533465 32.898289 0.615636 -2.316067 29.767829 -0.000000 -0.000000 -0.000001 3.413066 -7.186254 51.650263 6.296804 -4.359580 110.634680 0.248704 -1.503051 18.790269 0.000000 0.000000 -0.000000 -3.349037 -2.600428 57.010564 5.440845 -4.590899 99.698168 1.689410 -3.590700 50.382245 0.000000 0.000000 -0.000001 -3.996435 -3.303926 64.593871 4.058837 -4.618673 82.610510 2.315550 -4.026784 59.787200 0.000000 0.000000 -0.000002 -87.589294 -19.722219 21.811234 105.923462 -8.648133 1.572796 17.724368 -7.427576 -14.288547 1.464547 0.000000 -0.000001 0.000000 -0.000000 -0.000000 38.527601 3.171654 -100.243770 19.597059 56.209284 118.026898 -31.216246 19.243594 -16.897605 -34.022210 -0.000039 -0.000014 -0.000000 0.000001 0.000001 
-3.029413 27.767570 0.521431 -40.247938 -33.971985 -21.164494 58.736437 9.280955 -0.851882 10.765201 0.035733 -4.522652 17.545197 -0.769762 -4.397518 -10.121627 7.950497 3.133926 -15.819179 26.467895 7.354148 0.000002 0.000001 0.000002 -37.548538 -5.062011 1.004328 -68.192452 -28.184134 -69.932183 0.000015 -41.304688 0.000022 -132.375459 1.693814 15.804050 4.709227 9.560377 3.111987 19.473187 -1.474909 7.636925 -4.536182 -9.613105 1.492978 -0.000002 0.000002 0.000002 -0.212816 3.933717 -36.747114 2.942143 5.078902 -60.144610 0.513676 2.400826 -24.150506 -0.000001 0.000002 0.000000 0.405921 5.507050 -52.453162 3.387149 5.308624 -65.057443 0.282018 1.797448 -17.832381 0.000000 -0.000001 0.000002 -0.074380 5.736791 -61.061420 4.055036 5.569511 -72.094887 0.582666 2.548979 -25.748001 -0.000001 -0.000001 0.000001 -6.565579 4.545134 -72.425215 3.299626 5.267215 -64.107821 0.175350 1.424017 -14.038883 -0.000004 -0.000002 -0.000000 -43.149235 -11.034025 -13.158733 -46.427654 44.710770 93.422993 -0.000042 103.576253 0.000033 -40.811634 -25.352277 -25.983892 8.377136 -4.904137 11.022010 21.620207 -18.183888 -18.379221 -0.702887 -49.821206 -32.535131 -0.000000 0.000000 0.000001 -0.920038 1.683584 12.434993 0.748112 -2.533466 32.898289 0.615636 -2.316066 29.767832 0.000000 0.000000 -0.000001 3.413066 -7.186255 51.650266 6.296805 -4.359580 110.634680 0.248704 -1.503051 18.790267 -0.000000 0.000000 0.000000 -3.349038 -2.600428 57.010571 5.440845 -4.590899 99.698168 1.689410 -3.590700 50.382248 -0.000000 -0.000000 -0.000000 -3.996435 -3.303925 64.593878 4.058836 -4.618673 82.610510 2.315551 -4.026783 59.787200 0.000000 0.000000 -0.000001 -89.663718 -16.927586 21.675110 104.774118 -6.917292 1.821345 19.009419 -10.209661 -11.273816 3.183902 0.000000 -0.000006 0.000000 0.000000 -0.000000 41.233299 -0.870666 -91.797982 19.253345 56.587605 118.147861 -36.658281 21.720084 -22.730789 -34.289230 0.000023 0.000005 -0.000000 -0.000001 -0.000000 
